<?xml version="1.0" encoding="UTF-8"?>
<svg width="128pt" height="128pt" version="1.1" viewBox="0 0 128 128" xmlns="http://www.w3.org/2000/svg">
 <path d="m63.898 29.336c-0.39453 0.023437-0.72266 0.43359-0.70703 0.83203v12.09h-1.6133v-4.0273c0-0.42188-0.38281-0.80469-0.80469-0.80469h-5.0117c-0.35938 0.082031-0.63672 0.4375-0.62891 0.80469v21.754h-7.2539v-10.477c0-0.42187-0.38281-0.80469-0.80469-0.80469h-4.8359c-0.42188 0-0.80469 0.38281-0.80469 0.80469v4.0273h-3.2227v-4.0273c0-0.42187-0.38281-0.80469-0.80469-0.80469h-5.0117c-0.35938 0.082031-0.63672 0.4375-0.62891 0.80469v48.348c0 0.42188 0.38281 0.80469 0.80469 0.80469h62.875c0.42188 0 0.80469-0.38281 0.80469-0.80469v-48.348c0-0.42187-0.38281-0.80469-0.80469-0.80469h-4.8359c-0.42188 0-0.80469 0.38281-0.80469 0.80469v4.0273h-3.2227v-4.0273c0-0.42187-0.38281-0.80469-0.80469-0.80469h-5.0117c-0.35938 0.082031-0.63672 0.4375-0.62891 0.80469v10.477h-7.2539v-21.754c0-0.42188-0.38281-0.80469-0.80469-0.80469h-4.8359c-0.42188 0-0.80469 0.38281-0.80469 0.80469v4.0273h-1.6133v-6.2461c2.3242 0.42578 4.5039-0.20312 6.4492-0.20312 0.42187 0 0.80469-0.38281 0.80469-0.80469v-4.0273c0.007813-0.33984-0.23047-0.67578-0.55469-0.78125-1.3789-0.4375-2.7148-0.24219-4.0312-0.023437-0.96484 0.19141-2.0625 0.23438-2.6719 0-0.14844-0.64453-0.50781-0.78906-0.90625-0.83203zm6.5508 2.3164v2.5938c-2.0352 0.10938-3.9141 0.48438-5.6445 0.10156v-2.3906c1.0469 0.12109 2.0391-0.050781 2.9492-0.20312 0.92578-0.21484 1.8008-0.18359 2.6953-0.10156zm-13.703 7.3789h3.2227v4.0273c0 0.42188 0.38281 0.80469 0.80469 0.80469h6.4492c0.42188 0 0.80469-0.38281 0.80469-0.80469v-4.0273h3.2227v20.949h-14.508zm4.6602 9.668c-0.35938 0.082031-0.63672 0.4375-0.62891 0.80469v4.8359c0 0.42188 0.38281 0.80469 0.80469 0.80469h4.8359c0.42188 0 0.80469-0.38281 0.80469-0.80469v-4.8359c0-0.42188-0.38281-0.80469-0.80469-0.80469h-5.0117zm-28.035 1.6133h3.2227v4.0273c0 0.42188 0.38281 0.80469 0.80469 0.80469h4.8359c0.42188 0 0.80469-0.38281 0.80469-0.80469v-4.0273h3.2227c-0.003907 15.578 0 31.148 0 46.734h-12.898zm29.02 0h3.2227v3.2227h-3.2227zm19.348 0h3.2227v4.0273c0 0.42188 0.38281 0.80469 0.80469 0.80469h4.8359c0.42188 0 0.80469-0.38281 0.80469-0.80469v-4.0273h3.2227v46.734h-12.898v-46.734zm-44.512 11.281c-0.35937 0.082031-0.63672 0.4375-0.62891 0.80469v4.8359c0 0.42188 0.38281 0.80469 0.80469 0.80469h4.8359c0.42188 0 0.80469-0.38281 0.80469-0.80469v-4.8359c0-0.42188-0.38281-0.80469-0.80469-0.80469h-5.0117zm10.656 0h32.242v35.453h-8.8672v-10.477c0-2.9336-0.62891-5.1641-1.9141-6.6719-1.2852-1.5117-3.1953-2.1914-5.3906-2.1914-2.1602 0-4.043 0.67969-5.3164 2.1914-1.2734 1.5117-1.8906 3.7383-1.8906 6.6719v10.477h-8.8672zm37.711 0c-0.35938 0.082031-0.63672 0.4375-0.62891 0.80469v4.8359c0 0.42188 0.38281 0.80469 0.80469 0.80469h4.8359c0.42188 0 0.80469-0.38281 0.80469-0.80469v-4.8359c0-0.42188-0.38281-0.80469-0.80469-0.80469h-5.0117zm-47.383 1.6133h3.2227v3.2227h-3.2227zm48.367 0h3.2227v3.2227h-3.2227zm-49.348 9.668c-0.35938 0.082031-0.63672 0.4375-0.62891 0.80469v4.8359c0 0.42188 0.38281 0.80469 0.80469 0.80469h4.8359c0.42187 0 0.80469-0.38281 0.80469-0.80469v-4.8359c0-0.42188-0.38281-0.80469-0.80469-0.80469h-5.0117zm48.367 0c-0.35938 0.082031-0.63672 0.4375-0.62891 0.80469v4.8359c0 0.42188 0.38281 0.80469 0.80469 0.80469h4.8359c0.42188 0 0.80469-0.38281 0.80469-0.80469v-4.8359c0-0.42188-0.38281-0.80469-0.80469-0.80469h-5.0117zm-47.383 1.6133h3.2227v3.2227h-3.2227zm48.367 0h3.2227v3.2227h-3.2227zm-23.375 4.8594v17.676l-4.8359-0.023438v-10.426c0-2.7031 0.57812-4.5312 1.5117-5.6406 1.0625-0.94141 2.2188-1.4766 3.3242-1.5859zm1.6133 0.023438c1.4336 0.13672 2.5078 0.62891 3.3008 1.5625 0.94141 1.1094 1.5352 2.9336 1.5352 5.6406v10.477l-4.8359-0.023437z" fill="#fff"/>
</svg>
