<?xml version="1.0" encoding="UTF-8"?>
<svg width="128pt" height="128pt" version="1.1" viewBox="0 0 128 128" xmlns="http://www.w3.org/2000/svg">
 <path d="m100.96 36.148c-0.65625-0.55078-1.4453-0.92188-2.2891-1.0781h-0.28125c-0.26953-0.023437-0.53906-0.023437-0.80859 0h-65.625c-0.34766 0.078126-0.6875 0.1875-1.0117 0.33594-5.5312 2.5586-8.9609 15.18-9.1406 26.445l0.003906 31.168h66.098c0.22266-0.003906 0.44531-0.0625 0.64062-0.16797 0.125-0.007812 0.25-0.03125 0.37109-0.078124l17.316-7.8984v-31.41c-0.33203-8.2695-2.2773-14.809-5.2734-17.316zm-45.387 34.816c2.0117-0.003906 3.8867-1.0195 4.9922-2.7031h22.41v18.355h-54.82v-18.355h22.438c1.1016 1.6836 2.9727 2.6953 4.9805 2.7031zm3.4062-6.5391v0.57422h-0.003906c0 1.8789-1.5234 3.4023-3.4023 3.4023-1.8828 0-3.4062-1.5234-3.4062-3.4023v-3.7148c0-1.8789 1.5234-3.4023 3.4062-3.4023 1.8789 0 3.4023 1.5234 3.4023 3.4023v3.1367zm-22.25-26.68c0.082031-0.046875 0.16016-0.10156 0.23047-0.16406h52.125c-3.3281 4.082-5.3633 12.34-6.0195 20.133h-22.707c-1.1133-1.5195-2.8828-2.4141-4.7656-2.4141-1.8828 0-3.6562 0.89453-4.7695 2.4141h-22.527c0.96094-9.9961 5.0938-18.445 8.4336-19.969zm24.707 22.527h22.82c0.625 0.011718 1.168-0.43359 1.2812-1.0469v-0.16797c0.70312-10.754 3.75-19.711 7.2461-21.312 0.078126-0.046875 0.15625-0.10156 0.23047-0.16406h0.29297l-0.16797 0.23047-0.29297 0.38281c-0.19141 0.25781-0.37109 0.51172-0.55078 0.79297-0.17969 0.28125-0.16797 0.26953-0.25781 0.41016-0.21875 0.34375-0.42188 0.71875-0.61328 1.1016l-0.12891 0.21875c-0.24219 0.47266-0.47266 0.97266-0.69141 1.4844-0.0625 0.12891-0.11328 0.28125-0.17969 0.42188-0.15234 0.38281-0.30859 0.78125-0.46094 1.1914l-0.20312 0.55078c-0.14062 0.39844-0.26953 0.80469-0.39844 1.2812 0 0.17969-0.11328 0.35937-0.16797 0.53906-0.16797 0.53906-0.32031 1.0742-0.46094 1.6367v0.17969c-0.16797 0.62891-0.30859 1.2812-0.44922 1.9062l-0.11328 0.52344c-0.089843 0.47266-0.19141 0.96094-0.28125 1.4453l-0.11328 0.65234c-0.078125 0.47266-0.15234 0.94531-0.21875 1.4336 0 0.20312-0.0625 0.39844-0.089844 0.60156-0.089844 0.64062-0.16797 1.2812-0.24219 1.9219 0.007812 0.03125 0.007812 0.066407 0 0.10156 0 0.67969-0.12891 1.3711-0.17969 2.0469v0.58984l-0.078125 1.4609v0.69141 0.55078l-25.43-0.003907v-0.57422c0-0.36328-0.03125-0.72266-0.10156-1.0781zm42.238-5.6328-14.258 6.4922v-0.20312-1.0352c0-0.34375 0-0.85938 0.078125-1.2812s0-0.69141 0.078125-1.0234l0.11328-1.2812 0.11328-0.98438 0.15234-1.1641 0.15234-0.96094c0-0.37109 0.11328-0.74219 0.17969-1.1016 0.0625-0.35938 0.12891-0.61328 0.17969-0.92188 0.050781-0.30859 0.14062-0.70312 0.21875-1.0352s0.14062-0.58984 0.20312-0.88281c0.0625-0.29297 0.16797-0.65234 0.25781-0.97266 0.089843-0.32031 0.14062-0.5625 0.21875-0.83203l0.26953-0.91016c0.089843-0.25781 0.16797-0.52344 0.25781-0.76953 0.089844-0.24219 0.19141-0.57422 0.29297-0.84375 0.10156-0.26953 0.16797-0.48828 0.25781-0.71875l0.32031-0.76953c0.089844-0.21875 0.17969-0.43359 0.28125-0.64062 0.10156-0.20312 0.21875-0.47266 0.33203-0.70312 0.11328-0.23047 0.17969-0.38281 0.28125-0.5625 0.10156-0.17969 0.23047-0.42188 0.34375-0.62891l0.29297-0.5 0.37109-0.53906c0.10156-0.14063 0.19141-0.28125 0.29297-0.41016l0.003906 0.003907c0.12109-0.16016 0.25391-0.31641 0.39453-0.46094l0.26953-0.32031c0.14062-0.13672 0.28906-0.26563 0.44922-0.38281 0.070313-0.074219 0.14453-0.14453 0.23047-0.20312 0.20703-0.16016 0.42969-0.29688 0.66406-0.41016 0.18359-0.085938 0.375-0.14844 0.57422-0.17969h0.28516c0.51172 0.019532 1.0039 0.22656 1.3789 0.57422 2.2031 1.7812 4.3164 7.543 4.4688 16.566zm-71.68-16.879c0.17188-0.085938 0.35156-0.14453 0.53906-0.17969h0.37109c-3.7266 4.1094-6.707 12.516-7.3086 21.297-0.007812 0.070313-0.007812 0.13672 0 0.20703-0.007812 0.085937-0.007812 0.16797 0 0.25391 0.027344 0.078125 0.070313 0.14453 0.125 0.20703 0.035157 0.070313 0.078126 0.14062 0.12891 0.20312l0.19141 0.15234c0.066406 0.050781 0.13672 0.089844 0.20703 0.12891 0.078125 0.011719 0.16016 0.011719 0.24219 0 0.0625 0.035156 0.13281 0.054688 0.20312 0.066406h23.016c-0.058594 0.33203-0.09375 0.67188-0.10156 1.0078v0.57422l-25.293 0.003906c0.28125-12.312 4.1094-22.297 7.6797-23.922zm54.824 52.695h-62.504v-26.035h25.293v0.57812c0.011719 0.23438 0.039063 0.46875 0.078125 0.70312h-24.09v23.473h59.941v-23.473h-24.102c0.011719-0.23438 0.011719-0.46875 0-0.70312v-0.57422l25.383-0.003906zm16.855-7.2578-14.297 6.5547v-25.754l14.297-6.5391zm-7.3594-43.262c-2.0469 2.3438-4.4922 8.5-5.3516 16.973l-0.21875 2.2148 11.648-5.3008v-0.85938c-0.34375-8.1133-2.3047-11.828-2.8945-12.801l0.003906 0.003907c-0.32812-0.53125-0.89062-0.875-1.5117-0.92188-0.64062-0.085938-1.2812 0.17578-1.6758 0.69141zm3.4062 12.273-5.9375 2.7148h-0.003906c0.47266-4.4062 1.8047-8.6758 3.918-12.57 1.2461 3.1406 1.9297 6.4766 2.0234 9.8555zm2.6719 7.2305-11.711 5.3516v22.965l11.711-5.3516zm-2.5586 21.328-6.5938 3.0078v-17.344l6.5938-3.0078z" fill="#fff"/>
</svg>
