<?xml version="1.0" encoding="UTF-8"?>
<svg width="128pt" height="128pt" version="1.1" viewBox="0 0 128 128" xmlns="http://www.w3.org/2000/svg">
 <g fill="#fff">
  <path d="m70.227 88.652v-8.1602l12.652-7.7109h20.496c0.85547 0 1.5508-0.69531 1.5508-1.5508v-7.793c0-0.85547-0.69531-1.5508-1.5508-1.5508h-10.527v-2.5469c3.6641-0.65234 6.457-3.8438 6.457-7.6953 0-0.85547-0.69531-1.5508-1.5508-1.5508h-1.0508v-7.5195c0-0.85547-0.69531-1.5508-1.5508-1.5508h-2.3086v-1.9297c0.88672-0.39844 1.6992-1.0742 2.3008-2.043 1.8945-3.0391 2.0703-8.8359-3.1094-15.988-0.375-0.52344-1.0391-0.76172-1.6562-0.58594-0.62109 0.16797-1.0742 0.69922-1.1406 1.3398-0.003906 0.03125-0.35938 3.3203-2.4062 8.793-0.13672 0.35547-1.3125 3.5586 0.03125 6.1562 0.57812 1.1172 1.6133 1.8672 2.8828 2.3438v1.9102h-2.3086c-0.85547 0-1.5508 0.69531-1.5508 1.5508v7.5195h-1.0391c-0.85547 0-1.5508 0.69531-1.5508 1.5508 0 3.8477 2.7891 7.0391 6.4492 7.6914v2.5469l-47.824 0.007813v-2.5469c3.6602-0.65625 6.4492-3.8477 6.4492-7.6914 0-0.85547-0.69531-1.5508-1.5508-1.5508h-1.043v-7.5195c0-0.85547-0.69531-1.5508-1.5508-1.5508h-2.3047v-1.9102c1.2695-0.47656 2.3008-1.2266 2.8828-2.3438 1.3438-2.5977 0.16797-5.8008 0.035156-6.1367-2.0508-5.4922-2.4062-8.7852-2.4102-8.8125-0.066407-0.64062-0.51953-1.1719-1.1406-1.3398-0.60937-0.17578-1.2773 0.0625-1.6562 0.58594-5.1797 7.1523-5 12.949-3.1094 15.988 0.60156 0.96875 1.4141 1.6445 2.3008 2.043v1.9297h-2.3086c-0.85547 0-1.5508 0.69531-1.5508 1.5508v7.5195h-1.0508c-0.85547 0-1.5508 0.69531-1.5508 1.5508 0 3.8516 2.7969 7.043 6.4609 7.6953v2.5469h-12.012c-0.85547 0-1.5508 0.69531-1.5508 1.5508v7.793c0 0.85547 0.69531 1.5508 1.5508 1.5508h19.949l12.574 7.6641v10.262l-20.785 20.578c-0.29688 0.29297-0.46094 0.69141-0.46094 1.1094 0 0.41797 0.17188 0.81641 0.47266 1.1055l5.2031 5.0391c0.30078 0.29297 0.69141 0.4375 1.0781 0.4375 0.39844 0 0.79688-0.15625 1.1016-0.45703l14.078-14.164-0.035157 13.102c-0.003906 0.41406 0.16016 0.80469 0.45312 1.0977 0.29297 0.29297 0.68359 0.45703 1.0977 0.45703h7.043c0.85547 0 1.5469-0.69141 1.5508-1.543l0.046876-12.047 9.9688 12.426c0.25781 0.32422 0.63672 0.53125 1.0469 0.57031 0.054688 0.007813 0.10938 0.011719 0.16406 0.011719 0.35547 0 0.70312-0.125 0.98047-0.35156l5.6992-4.6523c0.66016-0.53906 0.76172-1.5039 0.23047-2.1641zm19.398-53.305c-0.60156-1.1523-0.12891-3.0078 0.10938-3.6289 0.83594-2.2305 1.4062-4.1172 1.7969-5.6172 2.2344 4.332 2.0391 7.625 0.98438 9.3125-0.41016 0.66016-0.9375 1.0508-1.4219 0.98047-0.96094-0.26172-1.3008-0.71875-1.4688-1.0469zm-0.63672 8.7773h4.6133v5.9648h-4.6133zm-2.3281 9.0703h9.2852c-0.64453 1.8477-2.4023 3.1758-4.4688 3.1758h-0.35156c-2.0625 0.003906-3.8203-1.3281-4.4648-3.1758zm9.0039 11.793h6.1562v4.6875h-13.848zm-55.527-38.891c0.39062 1.5 0.96484 3.3945 1.8008 5.6328 0.21875 0.56641 0.71094 2.4453 0.10938 3.6133-0.16797 0.32812-0.50391 0.79297-1.4727 1.0469-0.48828 0.058594-1.0117-0.32031-1.4219-0.98047-1.0547-1.6875-1.25-4.9805 0.98438-9.3125zm-2.0742 18.027h4.6133v5.9648l-4.6133 0.003906zm-2.3398 9.0703h9.2852c-0.64453 1.8477-2.4023 3.1758-4.4688 3.1758h-0.34766c-2.0664 0.003906-3.8281-1.3281-4.4688-3.1758zm-7.3633 16.48v-4.6875h5.6133l7.6914 4.6875zm11.574-4.6875h49.77l-24.887 15.164zm4.8867 50.254-2.9648-2.8711 18.891-18.703 2.4648 3.0703zm22.211 0.66406h-3.9414l0.039062-14.68 2.0352-2.0508 1.9258 2.3984zm14.551-1.2227-19.148-23.863v-8.4883l1.5781 0.96094c0.24609 0.15234 0.52734 0.22656 0.80469 0.22656 0.28125 0 0.55859-0.074219 0.80469-0.22656l1.5-0.91406v6.8125c0 0.35156 0.12109 0.69141 0.33984 0.96484l17.418 21.832z"/>
  <path d="m116.8 50.859c-2.4922 0-4.5156 2.0273-4.5156 4.5156v25.441h-23.047c-2.4609 0-4.457 2.0039-4.457 4.4609 0 2.457 2 4.4609 4.457 4.4609h1.8828l1.0547 27.785c0.03125 0.83203 0.71875 1.4922 1.5508 1.4922h4.5625c0.83203 0 1.5195-0.66016 1.5508-1.4922l1.0547-27.785h6.1172l1.0547 27.785c0.03125 0.83203 0.71875 1.4922 1.5508 1.4922h4.5625c0.83203 0 1.5195-0.66016 1.5508-1.4922l1.0547-27.801c2.5078-0.050781 4.5352-2.0898 4.5352-4.6094l-0.003907-29.738c0-2.4922-2.0234-4.5156-4.5156-4.5156zm-20.008 65.047h-1.5781l-0.99219-26.172h3.5625zm15.891 0h-1.5781l-0.99219-26.172h3.5625zm5.5312-30.797c0 0.83984-0.68359 1.5234-1.5234 1.5234l-27.457-0.003906c-0.74609 0-1.3555-0.60547-1.3555-1.3555s0.60938-1.3555 1.3555-1.3555h24.598c0.85547 0 1.5508-0.69531 1.5508-1.5508v-26.992c0-0.78125 0.63672-1.4102 1.4141-1.4102 0.78125 0 1.4141 0.63281 1.4141 1.4102z"/>
  <path d="m43.223 85.238c0-2.457-2-4.4609-4.457-4.4609h-23.047v-25.441c0-2.4922-2.0273-4.5156-4.5156-4.5156-2.4922 0-4.5156 2.0273-4.5156 4.5156v29.734c0 2.5195 2.0273 4.5586 4.5352 4.6094l1.0547 27.805c0.03125 0.83203 0.71875 1.4922 1.5508 1.4922h4.5664c0.83203 0 1.5195-0.66016 1.5508-1.4922l1.0547-27.789h6.1133l1.0547 27.785c0.03125 0.83203 0.71875 1.4922 1.5508 1.4922h4.5664c0.83203 0 1.5195-0.66016 1.5508-1.4922l1.0547-27.785h1.8828c2.4531 0 4.4492-2 4.4492-4.457zm-26.324 30.633h-1.5781l-0.99219-26.176h3.5625zm15.887-0.003906h-1.5781l-0.99219-26.172h3.5664zm-21.477-29.273c-0.83984 0-1.5234-0.67969-1.5234-1.5234l0.003906-29.734c0-0.78125 0.63672-1.4102 1.4141-1.4102 0.78125 0 1.4141 0.63281 1.4141 1.4102v26.992c0 0.85547 0.69531 1.5508 1.5508 1.5508h24.598c0.74609 0 1.3555 0.60547 1.3555 1.3555s-0.60938 1.3555-1.3555 1.3555h-27.457z"/>
  <path d="m57.699 55.117 7.1406 5.6914c0.28516 0.22656 0.625 0.33984 0.96875 0.33984 0.35156 0 0.70312-0.12109 0.98828-0.35938l6.9961-5.8008c4.3008-3.3711 6.9766-6.8672 7.9531-10.398 1.2188-4.4062-1.0938-9.2109-5.2617-10.934-4.7812-1.9766-8.9102 1.4102-10.891 3.5352-2.0195-2.0859-6.2031-5.4102-10.965-3.3281-4.1328 1.7969-6.3516 6.6445-5.0469 11.031 1.0469 3.5078 3.7891 6.957 8.1172 10.223zm-1.8281-18.406c0.60938-0.26953 1.2188-0.38281 1.8125-0.38281 3.5742 0 6.6484 4.125 6.6875 4.1758 0.29688 0.40234 0.59375 0.58594 1.2734 0.62891 0.5-0.007812 0.97266-0.25781 1.2578-0.66797 0.039062-0.058594 4.1328-5.7109 8.4062-3.9414 2.7461 1.1328 4.2617 4.3125 3.4531 7.2383-0.79688 2.8789-3.1133 5.8359-6.9102 8.8125l-6.0625 5.0195-6.1875-4.9297c-3.8203-2.8828-6.1914-5.7969-7.043-8.6602-0.86719-2.9023 0.58984-6.1133 3.3125-7.293z"/>
  <path d="m106.64 40.723 4.6016 1.4805c0.15625 0.050781 0.31641 0.074219 0.47656 0.074219 0.57031 0 1.1133-0.31641 1.3828-0.85156l2.1719-4.3047c2.0312-3.8672 1.5312-6.707 0.75-8.4141-0.86719-1.9062-2.7539-3.1445-4.8047-3.1562h-0.019531c-2.3711 0-3.7891 1.5352-4.5352 3.0898-1.6211-0.55469-3.7266-0.63281-5.3984 1.0742-1.4297 1.4609-1.875 3.6758-1.1289 5.6367 0.66797 1.75 2.3359 4.0938 6.5039 5.3711zm-3.1523-8.8398c0.35938-0.36328 0.78906-0.49219 1.2188-0.49219 0.96484 0 1.9141 0.65234 1.9688 0.6875 0.43359 0.30859 1 0.37109 1.4922 0.17578 0.49609-0.20312 0.85156-0.65234 0.94141-1.1758 0.015625-0.097656 0.42969-2.418 2.0938-2.418h0.007813c0.84375 0.003906 1.625 0.53125 1.9961 1.3398 0.70312 1.5352 0.46875 3.5039-0.6875 5.7031l-1.5898 3.1445-3.3516-1.0781c-0.007813-0.003906-0.015625-0.003906-0.023437-0.007812-2.3555-0.71875-3.918-1.9297-4.5195-3.5078-0.3125-0.83984-0.13672-1.7656 0.45312-2.3711z"/>
  <path d="m116.37 15.629c0.44531 0 0.88672-0.19141 1.1914-0.55859l2.2578-2.7227c0.54688-0.66406 0.45703-1.6406-0.20312-2.1836-0.65625-0.55078-1.6367-0.45312-2.1836 0.19922l-2.2578 2.7227c-0.54688 0.66406-0.45703 1.6406 0.20312 2.1836 0.29297 0.24219 0.64062 0.35938 0.99219 0.35938z"/>
  <path d="m111.68 17.289-2.2617 2.7227c-0.54688 0.66016-0.45703 1.6406 0.20312 2.1836 0.28906 0.24219 0.64062 0.35938 0.98828 0.35938 0.44531 0 0.88672-0.19141 1.1914-0.55859l2.2617-2.7227c0.54688-0.66016 0.45703-1.6406-0.20312-2.1836-0.65234-0.55078-1.6289-0.46094-2.1797 0.19922z"/>
  <path d="m115.53 16.934c-0.54688 0.66016-0.45703 1.6367 0.19922 2.1836l2.7188 2.2617c0.28906 0.24219 0.64062 0.35938 0.99219 0.35938 0.44531 0 0.88672-0.19141 1.1914-0.55859 0.54688-0.66016 0.45703-1.6367-0.19922-2.1836l-2.7188-2.2617c-0.66016-0.55469-1.6367-0.45703-2.1836 0.19922z"/>
  <path d="m111.53 15.625c0.28906 0.24219 0.64062 0.35938 0.98828 0.35938 0.44531 0 0.88672-0.19141 1.1914-0.55859 0.54687-0.66016 0.45703-1.6406-0.20313-2.1836l-2.7227-2.2617c-0.65625-0.55078-1.6367-0.45703-2.1836 0.19922-0.54687 0.66016-0.45703 1.6406 0.20313 2.1836z"/>
  <path d="m16.469 25.555h-0.019531c-2.0469 0.011718-3.9336 1.25-4.8008 3.1562-0.77734 1.7031-1.2812 4.5469 0.74219 8.3906l2.1836 4.3281c0.26953 0.53516 0.8125 0.85156 1.3828 0.85156 0.15625 0 0.31641-0.027344 0.47656-0.074219l4.6016-1.4805c4.168-1.2773 5.8359-3.6211 6.5-5.3672 0.74609-1.9609 0.30078-4.1758-1.1289-5.6367-1.668-1.707-3.7773-1.6328-5.3984-1.0742-0.75-1.5625-2.168-3.0938-4.5391-3.0938zm4.5234 6.5273c0.082031-0.058593 2.0195-1.3906 3.1914-0.19922 0.58984 0.60547 0.76562 1.5352 0.44922 2.3672-0.60156 1.5781-2.1602 2.7891-4.5195 3.5078-0.007812 0.003907-0.015625 0.003907-0.023437 0.007813l-3.3516 1.0781-1.5977-3.168c-1.1445-2.1758-1.3789-4.1406-0.67578-5.6797 0.37109-0.80859 1.1562-1.3359 1.9961-1.3398h0.007812c1.6641 0 2.082 2.3203 2.0977 2.418 0.089844 0.52344 0.44531 0.96484 0.93359 1.168 0.48828 0.20703 1.0586 0.14453 1.4922-0.16016z"/>
  <path d="m10.113 15.07c0.30859 0.36719 0.74609 0.55859 1.1914 0.55859 0.35156 0 0.69922-0.11719 0.98828-0.35938 0.66016-0.54688 0.75-1.5234 0.20312-2.1836l-2.2578-2.7227c-0.55078-0.65625-1.5234-0.75-2.1836-0.19922-0.66016 0.54688-0.75 1.5234-0.20313 2.1836z"/>
  <path d="m15.863 21.996c0.30859 0.36719 0.74609 0.55859 1.1914 0.55859 0.35156 0 0.69922-0.11719 0.98828-0.35938 0.66016-0.54687 0.75-1.5273 0.20312-2.1836l-2.2617-2.7227c-0.54688-0.66016-1.5273-0.75-2.1836-0.19922-0.66016 0.54688-0.75 1.5273-0.20312 2.1836z"/>
  <path d="m8.2305 21.738c0.35156 0 0.70312-0.11719 0.99219-0.35938l2.7188-2.2617c0.66016-0.55078 0.74609-1.5273 0.19922-2.1836-0.55078-0.65625-1.5273-0.75391-2.1836-0.19922l-2.7188 2.2617c-0.66016 0.55078-0.74609 1.5273-0.19922 2.1836 0.30469 0.36328 0.74609 0.55859 1.1914 0.55859z"/>
  <path d="m15.152 15.984c0.35156 0 0.69922-0.11719 0.98828-0.35938l2.7227-2.2617c0.66016-0.54688 0.75-1.5273 0.20312-2.1836-0.54688-0.66016-1.5234-0.75-2.1836-0.19922l-2.7188 2.2617c-0.66016 0.54687-0.75 1.5273-0.20312 2.1836 0.30469 0.36719 0.74609 0.55859 1.1914 0.55859z"/>
  <path d="m60.34 14.254c0.30859 0.36719 0.74609 0.55859 1.1914 0.55859 0.35156 0 0.70312-0.11719 0.99219-0.35938 0.66016-0.55078 0.74609-1.5273 0.19922-2.1836l-2.2617-2.7188c-0.54688-0.65625-1.5273-0.75391-2.1836-0.19922-0.66016 0.55078-0.74609 1.5273-0.19922 2.1836z"/>
  <path d="m66.086 21.176c0.30859 0.36719 0.74609 0.55859 1.1914 0.55859 0.35156 0 0.69922-0.11719 0.98828-0.35938 0.66016-0.54688 0.75-1.5234 0.20312-2.1836l-2.2578-2.7227c-0.54688-0.66016-1.5234-0.75-2.1836-0.19922-0.66016 0.54688-0.75 1.5234-0.20312 2.1836z"/>
  <path d="m58.453 20.918c0.35156 0 0.69922-0.11719 0.98828-0.35938l2.7227-2.2617c0.66016-0.54688 0.75-1.5273 0.20313-2.1836-0.55078-0.65625-1.5234-0.75-2.1836-0.19922l-2.7227 2.2617c-0.66016 0.54688-0.75 1.5273-0.20313 2.1836 0.30859 0.36719 0.75 0.55859 1.1953 0.55859z"/>
  <path d="m65.379 15.168c0.35156 0 0.70312-0.11719 0.99219-0.35938l2.7188-2.2617c0.66016-0.55078 0.74609-1.5273 0.19922-2.1836-0.54687-0.65625-1.5273-0.75-2.1836-0.19922l-2.7188 2.2617c-0.66016 0.55078-0.74609 1.5273-0.19922 2.1836 0.30469 0.36719 0.74609 0.55859 1.1914 0.55859z"/>
 </g>
</svg>
