<?xml version="1.0" encoding="UTF-8"?>
<svg width="128pt" height="128pt" version="1.1" viewBox="0 0 128 128" xmlns="http://www.w3.org/2000/svg">
 <path d="m96.633 71.129c0.44531 0.16016 0.91406 0.24609 1.3906 0.24609 1.1836 0 2.3086-0.53125 3.0625-1.4453 6.2891-7.5117 11.199-21.371 12.539-35.305 0.24609-2.7031-0.65234-5.3828-2.4766-7.3867-1.875-2.0625-4.5352-3.2344-7.3203-3.2383-2.6914 0.003906-5.2617 1.1172-7.1055 3.0742-1.7188-3.1172-4.9883-5.0625-8.5508-5.0742h-0.34375c-2.6914 0.003906-5.2617 1.1172-7.1055 3.0742-1.7188-3.1172-4.9883-5.0625-8.5508-5.0742h-0.34375c-3.0859 0.007812-5.9883 1.4727-7.8281 3.9492-1.8398-2.4766-4.7422-3.9414-7.8281-3.9492h-0.34375c-3.5625 0.011719-6.832 1.957-8.5508 5.0742-1.8438-1.957-4.4141-3.0703-7.1055-3.0742h-0.34375c-3.5625 0.011719-6.832 1.957-8.5508 5.0742-1.8438-1.957-4.4141-3.0703-7.1055-3.0742-2.7852 0.003906-5.4453 1.1758-7.3203 3.2383-1.8242 2.0039-2.7227 4.6836-2.4766 7.3867 1.3281 13.934 6.25 27.801 12.535 35.305 0.75781 0.91406 1.8828 1.4453 3.0664 1.4453 0.47656 0 0.94531-0.085938 1.3906-0.24609 1.5859-0.56641 2.6445-2.0742 2.6328-3.7617v-22.48c1.2109 0.72266 2.5898 1.1055 4 1.1133h4c2.8164-0.007812 5.4219-1.5039 6.8516-3.9297 1.4297 1.2383 3.2578 1.9219 5.1484 1.9297h4c2.3047-0.007812 4.4961-1.0156 6-2.7656 1.5039 1.75 3.6953 2.7578 6 2.7656h4c1.8906-0.007812 3.7188-0.69141 5.1484-1.9297 1.4297 2.4258 4.0352 3.9219 6.8516 3.9297h4c1.4102-0.007812 2.7891-0.39062 4-1.1133v22.48c-0.011719 1.6875 1.0469 3.1953 2.6328 3.7617zm1.3672-33.129v-4.1719c0.003906-3.2188 2.6094-5.8242 5.8281-5.8281 1.6602 0.003906 3.2422 0.70312 4.3633 1.9297 1.0742 1.1641 1.6016 2.7344 1.4492 4.3125-1.2422 12.98-5.9102 26.293-11.641 33.156zm-68 0v29.367h-0.019531c-5.7109-6.832-10.379-20.145-11.621-33.125-0.15625-1.5742 0.36719-3.1445 1.4414-4.3125 1.1211-1.2305 2.707-1.9297 4.3711-1.9297 3.2188 0.003906 5.8242 2.6094 5.8281 5.8281zm16-2v2c0 1.0625-0.42188 2.0781-1.1719 2.8281s-1.7656 1.1719-2.8281 1.1719h-4c-2.2109 0-4-1.7891-4-4v-6.1719c0.003906-3.2188 2.6094-5.8242 5.8281-5.8281h0.34375c3.2188 0.003906 5.8242 2.6094 5.8281 5.8281zm16 0c0 1.0625-0.42188 2.0781-1.1719 2.8281s-1.7656 1.1719-2.8281 1.1719h-4c-2.2109 0-4-1.7891-4-4v-6.1719c0.003906-3.2188 2.6094-5.8242 5.8281-5.8281h0.34375c3.2188 0.003906 5.8242 2.6094 5.8281 5.8281zm16-4.1719v4.1719c0 1.0625-0.42188 2.0781-1.1719 2.8281s-1.7656 1.1719-2.8281 1.1719h-4c-2.2109 0-4-1.7891-4-4v-6.1719c0.003906-3.2188 2.6094-5.8242 5.8281-5.8281h0.34375c3.2188 0.003906 5.8242 2.6094 5.8281 5.8281zm12 10.172h-4c-2.2109 0-4-1.7891-4-4v-6.1719c0.003906-3.2188 2.6094-5.8242 5.8281-5.8281h0.34375c3.2188 0.003906 5.8242 2.6094 5.8281 5.8281v6.1719c0 1.0625-0.42188 2.0781-1.1719 2.8281s-1.7656 1.1719-2.8281 1.1719zm-48 56c0-8.6016-8.0938-18.816-8.4375-19.25-0.39453-0.45312-0.96484-0.71094-1.5625-0.71094s-1.168 0.25781-1.5625 0.71094c-0.34375 0.43359-8.4375 10.648-8.4375 19.25 0 4.8359 2.625 10 10 10s10-5.1641 10-10zm-16 0c0-5.1172 3.7891-11.379 6-14.602 2.2109 3.2227 6 9.4766 6 14.602 0.20312 1.6445-0.36328 3.293-1.5352 4.4648s-2.8203 1.7383-4.4648 1.5352c-1.6445 0.20312-3.293-0.36328-4.4648-1.5352s-1.7383-2.8203-1.5352-4.4648z" fill="#fff"/>
</svg>
