<?xml version="1.0" encoding="UTF-8"?>
<svg width="128pt" height="128pt" version="1.1" viewBox="0 0 128 128" xmlns="http://www.w3.org/2000/svg">
 <path d="m105.8 83.992-0.03125-0.03125-0.03125-0.046876-8.4414-8.4414c-0.75391-0.75391-0.75391-1.9766 0-2.7148 0.75391-0.75391 1.9766-0.75391 2.7148 0l7.5469 7.5469 6.5742-3.2969-3.2188-3.2344c-0.375-0.375-0.56641-0.86328-0.56641-1.3633v-10.199c0-1.0664 0.86328-1.9297 1.9141-1.9297 1.0664 0 1.9297 0.86328 1.9297 1.9297v9.4141l4.5352 4.5352c0.14062 0.14062 0.26562 0.3125 0.375 0.50391 0.47266 0.95703 0.078125 2.1016-0.86328 2.5742l-7.832 3.9219 3.1211 3.1211c0.40625 0.35938 0.66016 0.87891 0.66016 1.4609v10.984c0.26562 0.15625 0.53516 0.29688 0.78516 0.47266 3.1172 1.9141 5.0312 4.6758 5.0312 7.8164 0 1.0977-0.89453 2.0078-2.0078 2.0078h-107.98c-1.1133 0-2.0078-0.91016-2.0078-2.0078v-0.078125c0.03125-3.1055 1.9453-5.8359 5.0234-7.7383 1.4297-0.89453 3.1211-1.6172 4.9883-2.1016v-9.3516c0-0.58203 0.26562-1.0977 0.67578-1.4609l3.1211-3.1211-0.92578-0.45312-0.039062-0.03125-0.039062-0.015626-0.046876-0.015624-0.039062-0.03125-0.039062-0.015626-6.6992-3.3594c-0.95703-0.47266-1.3359-1.6172-0.86328-2.5742 0.09375-0.1875 0.21875-0.35938 0.35937-0.50391l4.5352-4.5352v-9.4141c0-1.0664 0.87109-1.9297 1.9297-1.9297 1.0664 0 1.9297 0.86328 1.9297 1.9297v10.199c0 0.50391-0.1875 0.98828-0.56641 1.3633l-3.2344 3.2344 3.1953 1.5859 6.9688-6.9688v-9.4141c0-1.0664 0.86328-1.9297 1.9219-1.9297 1.0664 0 1.9297 0.86328 1.9297 1.9297v10.199c0 0.50391-0.1875 0.98828-0.56641 1.3633l-6.6289 6.6367 0.93359 0.47266c0.20312 0.078125 0.40625 0.21875 0.58203 0.39062 0.75391 0.73828 0.75391 1.9609 0.007812 2.7148l-4.543 4.5352v7.9102c0.67578-0.046875 1.3477-0.078125 2.0391-0.078125l0.80078 0.015625c1.3008-1.8984 3.1133-3.5156 5.2578-4.6758 2.4336-1.3164 5.3047-2.0859 8.3555-2.0859h0.38281l-5.625-53.844c-0.35156-3.3438 0.69922-6.5273 2.6758-8.9609 1.9609-2.4336 4.8633-4.1133 8.207-4.457l31.605-3.3125c3.3594-0.34375 6.5273 0.70703 8.9609 2.6836 2.4336 1.9609 4.1133 4.8633 4.4727 8.207l6.0742 58.203c0.50391 0.28125 0.98828 0.58203 1.4453 0.89453 2.7305 1.8828 4.8164 4.4414 5.9805 7.375 0.55078-0.03125 1.082-0.046875 1.5859-0.046875 2.2109 0 4.332 0.29688 6.2617 0.83203v-8.6641zm-63.004 6.1836 0.21875 0.046875c0.88672 0.25 1.7422 0.55078 2.5508 0.91016 1.5938-2.2422 3.7578-4.1445 6.3164-5.5234 3.0273-1.6641 6.6055-2.6211 10.438-2.6211 2.8789 0 5.6328 0.55078 8.0977 1.5234 2.0703 0.81641 3.9531 1.9453 5.5859 3.3125 1.1602-0.59766 2.4023-1.0977 3.7031-1.4609 1.7578-0.48828 3.625-0.75391 5.5547-0.75391 1.9609 0 3.8438 0.26562 5.6172 0.76953l-5.8555-56.039c-0.23438-2.2461-1.3828-4.1914-3.0117-5.5078-1.6328-1.332-3.7656-2.0234-6.0273-1.8047l-31.598 3.3125c-2.2461 0.23438-4.1992 1.3633-5.5234 2.9961-1.3281 1.6328-2.0234 3.7812-1.7891 6.0273zm-30.18 14.832h102.77c-0.53516-0.89453-1.4141-1.7109-2.5273-2.4023-2.2109-1.3789-5.3047-2.2266-8.7734-2.2266-0.47266 0-0.92578 0.015625-1.332 0.03125h-0.03125l-0.015625 0.015625c-0.48828 0.03125-0.92578 0.078125-1.3477 0.125-0.98828 0.125-1.9453-0.48828-2.1953-1.4766-0.70703-2.6836-2.4648-5.0547-4.9102-6.7461-2.4492-1.6797-5.5703-2.6992-8.9922-2.6992-1.5703 0-3.0742 0.20312-4.4727 0.59766-1.4453 0.40625-2.793 1.0039-3.9844 1.7578-0.76953 0.50391-1.8203 0.40625-2.4961-0.26562-1.4609-1.4609-3.2969-2.6523-5.3672-3.4688-2.0078-0.80078-4.2617-1.2383-6.6211-1.2383-3.1523 0-6.0742 0.76953-8.5195 2.1172-2.4492 1.332-4.4414 3.2344-5.6953 5.4766l-0.10938 0.20312c-0.57422 0.94141-1.8047 1.2539-2.7539 0.69141-0.98828-0.59766-2.0938-1.0664-3.2734-1.3984-1.1367-0.29687-2.3711-0.47266-3.6328-0.47266-2.3867 0-4.5898 0.58203-6.4414 1.5859-1.8438 1.0039-3.3438 2.4336-4.3008 4.0977-0.33594 0.70703-1.082 1.1758-1.9219 1.1289l-0.91797-0.046875-0.83203-0.015625c-3.4531 0-6.5586 0.84766-8.7734 2.2266-1.1211 0.69141-2 1.5078-2.5352 2.4023zm46.562-70.746c-0.10938-1.0977 0.69141-2.0859 1.7891-2.1953s2.0859 0.69141 2.1953 1.7891l0.87109 8.3477 9.3125-0.97266c1.0977-0.125 2.0859 0.67578 2.1953 1.7734 0.10938 1.1133-0.69141 2.0859-1.7891 2.2109l-9.3047 0.95703 2.2148 21.219c0.10938 1.0977-0.69141 2.0859-1.7891 2.1953-1.0977 0.10937-2.0859-0.69141-2.1953-1.7891l-2.2109-21.203-9.3047 0.97266c-1.0977 0.10938-2.0859-0.69141-2.1953-1.7891-0.11719-1.0977 0.68359-2.0859 1.7891-2.1953l9.2969-0.97266z" fill="#fff"/>
</svg>
