<?xml version="1.0" encoding="UTF-8"?>
<svg width="128pt" height="128pt" version="1.1" viewBox="0 0 128 128" xmlns="http://www.w3.org/2000/svg">
 <path d="m66.234 62.684c0.71094 0 1.2812-0.57031 1.2812-1.2812v-11.359c0-0.70703-0.57031-1.2812-1.2812-1.2812s-1.2812 0.57031-1.2812 1.2812v11.359c0 0.71094 0.57031 1.2812 1.2812 1.2812zm-2.2344 5.9609c1.6055 0 3.2109-0.60938 4.4375-1.832 0.5-0.5 0.5-1.3086 0-1.8086s-1.3086-0.5-1.8086-0.003906c-1.4492 1.4492-3.8047 1.4492-5.25 0.003906-0.5-0.5-1.3086-0.5-1.8086 0s-0.5 1.3086 0 1.8086c1.2188 1.2188 2.8242 1.832 4.4297 1.832zm5.5586-0.37109c0.25 0.25 0.57812 0.375 0.90625 0.375s0.65234-0.125 0.90234-0.375c0.71875-0.71875 1.1133-1.6719 1.1133-2.6875 0-1.0117-0.39453-1.9688-1.1133-2.6875-0.5-0.5-1.3086-0.5-1.8086-0.003907-0.5 0.5-0.5 1.3086-0.003906 1.8086 0.23437 0.23828 0.36328 0.55078 0.36328 0.87891 0 0.33203-0.12891 0.64062-0.36328 0.875-0.49219 0.50391-0.49219 1.3164 0.003906 1.8164zm-14.047-2.6836c0 1.0156 0.39844 1.9688 1.1133 2.6875 0.25 0.25 0.57422 0.375 0.90234 0.375s0.65625-0.125 0.90625-0.375c0.5-0.5 0.5-1.3125-0.003906-1.8086-0.23438-0.23438-0.36328-0.54688-0.36328-0.875 0-0.33203 0.13281-0.64062 0.36328-0.87891 0.5-0.5 0.5-1.3125-0.003907-1.8086-0.5-0.49609-1.3086-0.5-1.8086 0.003906-0.71094 0.71094-1.1055 1.668-1.1055 2.6797zm-1.7539-12.301c0-1.6016-1.3008-2.9023-2.9023-2.9023-1.6016 0-2.9023 1.3008-2.9023 2.9023 0 1.6016 1.3008 2.9023 2.9023 2.9023 1.6055 0 2.9023-1.3008 2.9023-2.9023zm23.383-2.9062c-1.6055 0-2.9062 1.3008-2.9062 2.9023 0 1.6016 1.3008 2.9023 2.9062 2.9023 1.6016 0 2.9023-1.3008 2.9023-2.9023 0-1.6016-1.3008-2.9023-2.9023-2.9023zm-21.391-1.2344c0.03125 0.003906 0.0625 0.003906 0.089844 0.003906 0.66406 0 1.2227-0.51172 1.2695-1.1836 0.054687-0.70312-0.47266-1.3164-1.1758-1.3711-0.16797-0.015625-4.1055-0.375-6.1719-4.3086-0.32812-0.625-1.1016-0.86719-1.7305-0.53516-0.625 0.32812-0.86719 1.1016-0.53516 1.7305 2.75 5.2227 8.0312 5.6523 8.2539 5.6641zm16.238 0.003906c0.03125 0 0.0625 0 0.09375-0.003906 0.22266-0.015626 5.5039-0.44531 8.2539-5.668 0.33203-0.625 0.089843-1.3984-0.53516-1.7305s-1.4023-0.089844-1.7305 0.53516c-2.0703 3.9336-6.0078 4.293-6.1758 4.3086-0.70312 0.050781-1.2305 0.66406-1.1797 1.3672 0.046875 0.67969 0.60938 1.1914 1.2734 1.1914zm-5.5352 61.754c0 0.71094 0.57422 1.2812 1.2812 1.2812 0.71094 0 1.2812-0.57031 1.2812-1.2812 0-0.70703-0.57422-1.2812-1.2812-1.2812s-1.2812 0.57422-1.2812 1.2812zm8.8281-38.375c-6.75 3.0273-15.816 3.0273-22.566 0-0.64453-0.29297-1.4023 0-1.6914 0.64453-0.28906 0.64453 0 1.4023 0.64453 1.6914 0.63281 0.28516 1.2891 0.53516 1.9531 0.76953 0.5625 4.2461 3.3828 6.293 3.5078 6.3789 0.21875 0.14844 0.47266 0.23047 0.72656 0.23047 0.16406 0 0.32812-0.03125 0.48438-0.09375 0.40234-0.16797 0.69141-0.51953 0.77344-0.94531l0.78125-4.1133c1.3555 0.16797 2.7266 0.26172 4.1016 0.26172 1.3711 0 2.7461-0.09375 4.0977-0.26172l0.78125 4.1094c0.082031 0.42578 0.37109 0.78125 0.77344 0.94531 0.15625 0.0625 0.32031 0.09375 0.48437 0.09375 0.25781 0 0.51172-0.078126 0.72656-0.23047 0.12891-0.085938 2.9492-2.1328 3.5078-6.3789 0.66797-0.23437 1.3203-0.48437 1.9531-0.76953 0.64453-0.28906 0.93359-1.043 0.64453-1.6914-0.28516-0.64062-1.043-0.92969-1.6836-0.64062zm-18.195 5.625c-0.27344-0.46875-0.52344-1.0391-0.71484-1.7031 0.33203 0.082031 0.66016 0.15625 0.99609 0.22656zm13.816 0-0.28125-1.4805c0.33594-0.066406 0.66406-0.14453 0.99609-0.22656-0.1875 0.66406-0.44141 1.2422-0.71484 1.707zm18.352 14.551c3.5078-4.4258 8.2852-9.1875 14.805-14.051 0.27344-0.20312 0.45312-0.50781 0.50391-0.85156 0.042969-0.33984-0.046875-0.68359-0.25781-0.95703-2.2969-2.9648-7.5156-6.5703-14.188-8.2539 0.003906-0.13672 0.019531-0.27734 0.019531-0.41406v-1.9414c2.8906-0.49609 5.1875-2.6719 6.5352-6.3008 1.8164-4.8867 1.6406-12.234-1.5195-14.961-0.26562-0.23047-0.61328-0.33594-0.95703-0.30469-0.34766 0.035156-0.66797 0.20703-0.88281 0.48438-0.011719 0.015625-0.59766 0.75-1.5195 1.625v-3.2812c0-11.691-7.2617-21.711-17.508-25.805-0.054687-0.023437-0.10547-0.054687-0.16016-0.078124-0.019531-0.007813-0.039062-0.003907-0.058594-0.007813-3.1211-1.2188-6.5117-1.8945-10.059-1.8945-3.5469 0-6.9375 0.67578-10.059 1.8906-0.023438 0.007812-0.042969 0.003906-0.066407 0.011719-0.0625 0.023437-0.12109 0.0625-0.1875 0.085937-10.23 4.1016-17.477 14.113-17.477 25.793v3.2812c-0.92578-0.87891-1.5156-1.6133-1.5234-1.625-0.21484-0.27344-0.53516-0.44922-0.88281-0.48438-0.34766-0.03125-0.69531 0.078125-0.95703 0.30469-3.1602 2.7266-3.3398 10.074-1.5195 14.961 1.3516 3.6328 3.6445 5.8398 6.5352 6.332v1.9062c0 0.13672 0.011718 0.27734 0.019531 0.41406-6.6758 1.6797-11.898 5.2852-14.195 8.25-0.21094 0.26953-0.30078 0.61328-0.25781 0.95312 0.046875 0.34375 0.23047 0.64844 0.50391 0.85547 6.5234 4.8594 11.297 9.6211 14.805 14.047-9.7812 3.2773-16.477 12.414-16.477 22.887 0 0.70703 0.57031 1.2812 1.2812 1.2812h80.91c0.33984 0 0.66797-0.13281 0.90625-0.375 0.24219-0.24219 0.375-0.56641 0.375-0.90625-0.007813-10.469-6.707-19.602-16.488-22.871zm0.87891-31.461c1.0273-0.35156 1.9297-1.125 2.5703-2.25 1.1562-2.0312 1.25-4.7578 0.22656-6.4805-0.35938-0.60938-1.1484-0.80859-1.7539-0.44531-0.60938 0.35938-0.80859 1.1484-0.44531 1.7539 0.55859 0.93359 0.44531 2.6875-0.25 3.9062-0.089844 0.16016-0.21094 0.32812-0.34375 0.48828v-7.0703c1.7109-0.92969 3.1797-2.2344 4.1094-3.1953 1.207 2.3516 1.4922 7.1641 0.027344 11.098-0.68359 1.8398-1.9453 3.9688-4.1367 4.582zm-52.27-3.0352c-0.13281-0.15625-0.25391-0.31641-0.34375-0.47656-0.69141-1.2188-0.80469-2.9727-0.25-3.9062 0.35938-0.60938 0.16016-1.3945-0.44531-1.7539-0.60938-0.36328-1.3945-0.16406-1.7539 0.44531-1.0234 1.7266-0.93359 4.4531 0.22266 6.4805 0.64062 1.1211 1.543 1.8789 2.5703 2.2305v2.4023c-2.1914-0.61719-3.4531-2.7422-4.1367-4.582-1.4648-3.9336-1.1797-8.7461 0.027344-11.098 0.92969 0.96094 2.3984 2.2656 4.1094 3.1953zm2.5586-6.8516 2.7148-0.74609c0.55859-0.15234 0.94141-0.65625 0.94141-1.2344v-8.0898c0-4.6836 5.668-7.8633 7.8516-8.9141 1.5742 1.8242 5.8516 6.1562 11.824 7.3047 0.16016 0.03125 0.32422 0.03125 0.48438 0 5.9727-1.1484 10.254-5.4844 11.828-7.3086 2.1836 1.0469 7.8516 4.2148 7.8516 8.9141v8.0898c0 0.57422 0.38672 1.082 0.94141 1.2344l2.7188 0.74609v16.82c0 9.8594-14.48 21.719-23.574 21.719s-23.574-11.859-23.574-21.723zm20.391 44.566c-1.1211-0.97656-4.0273-3.3984-6.707-4.6875v-1.7344c3.4141 1.8477 6.8867 2.9609 9.8945 2.9609s6.4805-1.1133 9.8945-2.9609v1.7031c-2.6211 1.2656-5.4727 3.6797-6.6445 4.7188zm5.6445 2.5586v4.9297h-4.9258v-4.9297zm-28.539 15.824c0.21094-2.3789 1.0117-4.6562 2.3516-6.6562 0.39453-0.58594 0.23828-1.3828-0.34766-1.7734-0.58594-0.39844-1.3828-0.24219-1.7773 0.34766-1.625 2.4219-2.5859 5.1914-2.8008 8.082h-10.48c0.53125-9.1055 6.7305-16.883 15.512-19.445 6.2695 8.707 7.6289 15.859 7.8672 19.445zm13.219-5.4531c-1.5391-0.91406-2.6172-5.3438-2.3555-9.6797 0.22266-3.707 1.2734-5.7812 2.2148-6.1953 0-0.003907 0.050781-0.023438 0.17969-0.023438 1.6055 0 5.3672 2.6719 7.7969 4.7656v1.9453h-2.0664c-0.70703 0-1.2812 0.57031-1.2812 1.2812 0 0.71094 0.57031 1.2812 1.2812 1.2812h2.0664v1.8281c-2.3945 2.1172-6.1055 4.8203-7.6836 4.8203-0.10937-0.003906-0.15234-0.023437-0.15234-0.023437zm11.578 5.4531h-4.5195c-1.418-0.92578-2.3711-3.207-2.7383-4.418 2.1406-1.2852 4.2109-3.0312 5.2109-3.918h2.0469zm7.082 0h-4.5195v-8.3398h1.9805c0.96875 0.84375 3.0859 2.6016 5.2891 3.8984-0.35938 1.1797-1.3242 3.5117-2.75 4.4414zm9.4141-11.652c-0.22656 3.707-1.2734 5.7812-2.2188 6.1953 0 0-0.050782 0.023438-0.17969 0.023438-1.6055 0-5.3672-2.6719-7.7969-4.7617v-1.8867h2.0664c0.70703 0 1.2812-0.57031 1.2812-1.2812 0-0.70703-0.57031-1.2812-1.2812-1.2812l-2.0625 0.003907v-1.8906c2.3945-2.1172 6.1055-4.8203 7.6836-4.8203 0.10938 0 0.15234 0.019531 0.15234 0.019531v-0.003906c1.5391 0.91797 2.6172 5.3477 2.3555 9.6836zm13.445 11.656v-0.003906c-0.21875-2.8906-1.1758-5.6602-2.8008-8.082-0.39453-0.58594-1.1914-0.74609-1.7773-0.34766-0.58594 0.39453-0.74219 1.1914-0.34766 1.7734 1.3438 2 2.1406 4.2734 2.3555 6.6562h-10.328c0.23438-3.5898 1.5977-10.746 7.8672-19.453 8.7852 2.5586 14.98 10.336 15.516 19.453zm-31.363-32.605c-0.5 0.5-0.5 1.3086 0 1.8125 0.5 0.5 1.3086 0.5 1.8125 0 0.48047-0.48047 1.3086-0.48438 1.7891 0 0.25 0.25 0.57812 0.375 0.90625 0.375s0.65625-0.125 0.90625-0.375c0.5-0.5 0.5-1.3086 0.003907-1.8125-1.4531-1.4414-3.9688-1.4414-5.418 0z" fill="#fff"/>
</svg>
