<?xml version="1.0" encoding="UTF-8"?>
<svg width="128pt" height="128pt" version="1.1" viewBox="0 0 128 128" xmlns="http://www.w3.org/2000/svg">
 <g fill="#fff">
  <path d="m93.496 36.707c-1.3008 0-2.6406 0.070313-3.9766 0.20703l-1.1367 0.11719-0.019531 1.1445c-0.011719 0.60938-0.36719 11.891-11.895 17.094l-0.14453-19.938-12.492 8.2656-12.609-8.082 0.14844 20.445c-11.867-4.5586-12.891-15.805-12.938-16.398l-0.082032-1.1367-1.1367-0.058593c-25.898-1.375-34.91 22.824-34.996 23.059l-0.91406 2.5312 2.543-0.875c2.6094-0.89844 5.1172-1.3555 7.4453-1.3555 15.184 0 19.777 19.586 19.824 19.785l0.44922 1.9883 1.6016-1.2578c2.1484-1.6836 4.4492-2.5391 6.8477-2.5391 11.922 0 23.461 20.289 23.578 20.492l1.0234 1.8203 1.168-1.7344c0.21484-0.32031 0.48828-0.87109 1.0312-1.9883 2.4102-4.9492 9.7383-20.008 19.176-20.008 2.1523 0 4.3594 0.78906 6.5508 2.3398l1.4766 1.043 0.50391-1.7383c0.058593-0.21094 6.2656-20.969 22.934-20.969 2.1211 0 4.3633 0.33594 6.6562 0.99219l2.582 0.74609-1.0352-2.4766c-0.089844-0.21484-9.2617-21.516-32.164-21.516zm-39.66 3.5312 10.023 6.4258 9.9258-6.5664 0.11719 16.148c-2.7773 0.90625-6.082 1.4961-10.031 1.5938-0.37891 0.007812-0.75 0.015625-1.1211 0.015625-3.3828 0-6.2852-0.39844-8.793-1.0625zm63.621 16.152c-15.668 0-22.914 16.016-24.855 21.219-2.1836-1.2578-4.3984-1.8945-6.6133-1.8945-10.891 0-18.422 15.148-21.367 21.199-3.4141-5.4336-13.484-19.785-24.609-19.785-2.4102 0-4.7227 0.67578-6.8984 2.0117-1.6406-5.2266-7.5508-19.988-21.82-19.988-1.7852 0-3.6523 0.23438-5.5742 0.69922 2.8438-5.7383 11.629-19.418 30.312-18.957 0.78906 4.3555 5.0859 19.535 26.715 19.535 0.39062 0 0.78125-0.003907 1.1836-0.015626 22.734-0.56641 26.336-16.535 26.902-21.031 0.89844-0.066406 1.7891-0.10156 2.6641-0.10156 16.668 0 25.508 12.246 28.551 17.543-1.5625-0.28906-3.1016-0.43359-4.5898-0.43359z"/>
  <path d="m22.023 54.246-1.0586 2.3477c2.6641 1.1992 5.1523 2.9375 7.3945 5.1758l1.8203-1.8242c-2.4648-2.457-5.207-4.375-8.1562-5.6992z"/>
  <path d="m30.059 63.609c0.71094 0.83594 1.3984 1.7344 2.0469 2.6758l2.1172-1.4648c-0.69531-1.0078-1.4375-1.9766-2.2031-2.8789z"/>
  <path d="m40.016 72.547c1.2383 0 2.5078 0.13672 3.7695 0.40625l0.53906-2.5195c-1.4414-0.30859-2.8906-0.46484-4.3086-0.46484z"/>
  <path d="m45.543 73.414c4.2891 1.332 8.6797 4.1914 13.039 8.4961l1.8086-1.832c-4.6602-4.5977-9.3984-7.6641-14.086-9.1211z"/>
  <path d="m66.688 79.648 2.0156 1.6016c3.4141-4.293 7.0508-7.2578 10.809-8.8125l-0.98438-2.3789c-4.168 1.7266-8.1484 4.9531-11.84 9.5898z"/>
  <path d="m80.637 69.32 0.71875 2.4727c0.875-0.25391 1.7734-0.4375 2.668-0.54688l-0.30859-2.5547c-1.0312 0.12109-2.0664 0.33594-3.0781 0.62891z"/>
  <path d="m91.758 63.777 2.1133 1.4688c0.65234-0.9375 1.332-1.8359 2.0234-2.6719l-1.9883-1.6406c-0.73438 0.89453-1.457 1.8477-2.1484 2.8438z"/>
  <path d="m95.535 59.082 1.8789 1.7617c2.4844-2.6562 5.2305-4.7539 8.1602-6.2461l-1.168-2.2969c-3.1953 1.625-6.1797 3.9062-8.8711 6.7812z"/>
  <path d="m59.023 46.918c-1.6055 0.011719-2.9023 1.3281-2.8906 2.9336 0.011719 1.5938 1.3203 2.8906 2.9141 2.8906h0.019531c0.77734-0.003907 1.5078-0.3125 2.0547-0.86719s0.84375-1.2891 0.83594-2.0664c-0.011719-1.5938-1.3203-2.8906-2.9336-2.8906zm0.71875 3.6016c-0.18359 0.1875-0.42969 0.28906-0.69141 0.29297l-0.007812 0.96484v-0.96484c-0.53516 0-0.97656-0.4375-0.98047-0.97266-0.003906-0.53906 0.43359-0.98438 0.98047-0.98828 0.53516 0 0.97656 0.4375 0.98047 0.97266 0 0.26172-0.097657 0.50781-0.28125 0.69531z"/>
  <path d="m68.727 52.672 0.16797-0.003906c1.6016-0.089844 2.832-1.4688 2.7422-3.0703-0.089844-1.5391-1.3633-2.7461-2.9062-2.7461l-0.16797 0.003907c-0.77734 0.042969-1.4883 0.38672-2.0078 0.96875-0.51953 0.58203-0.77734 1.3281-0.73438 2.1055 0.089844 1.5352 1.3672 2.7422 2.9062 2.7422zm-0.73047-3.5664c0.17578-0.19531 0.41406-0.3125 0.73438-0.32812 0.51953 0 0.94922 0.40625 0.97656 0.92578 0.03125 0.53906-0.38281 1.0039-0.92188 1.0352l-0.058594 0.96875v-0.96484c-0.51953 0-0.94922-0.40625-0.97656-0.92578-0.015625-0.26172 0.074219-0.51172 0.24609-0.71094z"/>
  <path d="m41.297 113.9-1.0664 2.3438c1.1953 0.54297 2.4258 1.0508 3.6562 1.5117l0.89844-2.4141c-1.1758-0.4375-2.3477-0.92578-3.4883-1.4414z"/>
  <path d="m34.66 110.3-1.3789 2.1758c1.1055 0.69922 2.2539 1.375 3.4102 2l1.2266-2.2656c-1.1055-0.59766-2.2031-1.2383-3.2578-1.9102z"/>
  <path d="m28.582 105.84-1.6641 1.9648c0.99609 0.84375 2.0391 1.668 3.1016 2.4492l1.5273-2.0742c-1.0195-0.74609-2.0156-1.5312-2.9648-2.3398z"/>
  <path d="m23.168 100.58-1.918 1.7188c0.875 0.97656 1.7969 1.9336 2.7383 2.8477l1.793-1.8477c-0.89453-0.87109-1.7734-1.7852-2.6133-2.7188z"/>
  <path d="m12.438 89.258c0.57422 1.168 1.1992 2.3398 1.8594 3.4805l2.2266-1.293c-0.63281-1.0898-1.2305-2.207-1.7773-3.3242z"/>
  <path d="m48.363 116.54-0.73047 2.4688c1.2617 0.375 2.5508 0.70703 3.8242 0.98828l0.55859-2.5156c-1.2188-0.26562-2.4453-0.58594-3.6523-0.94141z"/>
  <path d="m20.746 97.691c-0.76953-0.98438-1.5156-2.0117-2.2188-3.0508l-2.1328 1.4414c0.73438 1.0859 1.5156 2.1602 2.3203 3.1953z"/>
  <path d="m7.5117 74.297c0.23438 1.2852 0.51562 2.5859 0.83984 3.8594l2.4961-0.63281c-0.30859-1.2188-0.57812-2.457-0.80078-3.6875z"/>
  <path d="m9.4531 81.953c0.41016 1.2461 0.86719 2.4922 1.3633 3.707l2.3828-0.97266c-0.47266-1.1602-0.91016-2.3477-1.3008-3.5391z"/>
  <path d="m6.6406 66.453c0.054687 1.3086 0.15625 2.6328 0.30078 3.9375l2.5586-0.28516c-0.13672-1.2461-0.23438-2.5117-0.28906-3.7617z"/>
  <path d="m112.5 89.402 2.2812 1.1953c0.60938-1.1641 1.1875-2.3633 1.7148-3.5625l-2.3594-1.0352c-0.50391 1.1445-1.0547 2.293-1.6367 3.4023z"/>
  <path d="m110.64 92.684c-0.66016 1.0664-1.3594 2.125-2.0898 3.1445l2.0938 1.4961c0.76172-1.0664 1.4961-2.1719 2.1875-3.293z"/>
  <path d="m55.723 118.17-0.38281 2.5469c1.2969 0.19531 2.6172 0.34766 3.9219 0.45312l0.20703-2.5664c-1.2461-0.10156-2.5078-0.25-3.7461-0.43359z"/>
  <path d="m106.25 98.824c-0.79297 0.96484-1.6328 1.9141-2.5 2.8281l1.8711 1.7695c0.90234-0.95703 1.7852-1.9531 2.6133-2.9609z"/>
  <path d="m117.58 75.238 2.5195 0.52734c0.26563-1.2812 0.49219-2.5898 0.67188-3.8945l-2.5508-0.35156c-0.16797 1.2422-0.38672 2.4961-0.64062 3.7188z"/>
  <path d="m118.61 67.766 2.5703 0.17578c0.089843-1.3047 0.13281-2.6328 0.13281-3.9453h-2.5742c0 1.2578-0.042969 2.5234-0.12891 3.7695z"/>
  <path d="m119.16 79.598-2.4766-0.69922c-0.33984 1.1992-0.72656 2.4102-1.1484 3.5938l2.4258 0.86719c0.44141-1.2383 0.84375-2.5039 1.1992-3.7617z"/>
  <path d="m74.496 117.77c-1.2266 0.23828-2.4805 0.44141-3.7266 0.59375l0.31641 2.5547c1.3047-0.16016 2.6172-0.37109 3.9023-0.62109z"/>
  <path d="m67.012 118.7c-1.0117 0.054687-2.043 0.085937-3.0625 0.085937l-0.71094-0.003906-0.035156 2.5742 0.74609 0.003906c1.0664 0 2.1445-0.03125 3.2031-0.089844z"/>
  <path d="m81.777 115.82c-1.1875 0.40625-2.3984 0.77734-3.6055 1.1016l0.66797 2.4883c1.2656-0.33984 2.5352-0.72656 3.7773-1.1523z"/>
  <path d="m101.06 104.3c-0.91797 0.84375-1.8789 1.6719-2.8594 2.4609l1.6133 2.0078c1.0273-0.82422 2.0352-1.6914 2.9922-2.5742z"/>
  <path d="m88.711 112.88c-1.1211 0.56641-2.2695 1.1016-3.418 1.5859l1.0039 2.3711c1.2031-0.50781 2.4062-1.0664 3.5781-1.6641z"/>
  <path d="m95.18 109.02c-1.0273 0.71484-2.0938 1.4023-3.168 2.043l1.3203 2.2109c1.125-0.67188 2.2422-1.3945 3.3164-2.1406z"/>
  <path d="m42.754 13.457c1.1523-0.48438 2.3398-0.93359 3.5234-1.3398l-0.82812-2.4375c-1.2422 0.42187-2.4844 0.89453-3.6914 1.4023z"/>
  <path d="m49.891 11.031c1.207-0.32031 2.4453-0.60156 3.6758-0.83984l-0.48438-2.5273c-1.2891 0.24609-2.5859 0.54297-3.8516 0.875z"/>
  <path d="m68.812 6.8359c-1.3008-0.10938-2.6289-0.17578-3.9453-0.19531l-0.039063 2.5742c1.2578 0.019531 2.5273 0.082031 3.7695 0.1875z"/>
  <path d="m24.254 26.234c0.86719-0.91016 1.7734-1.8008 2.6953-2.6445l-1.7383-1.8984c-0.96484 0.88281-1.9102 1.8125-2.8203 2.7656z"/>
  <path d="m17.344 35.18-2.1875-1.3555c-0.69141 1.1172-1.3516 2.2695-1.9648 3.4297l2.2773 1.2031c0.58594-1.1094 1.2148-2.2109 1.875-3.2773z"/>
  <path d="m9.9961 44.477 2.4219 0.875c0.42578-1.1797 0.89844-2.3555 1.4062-3.5l-2.3555-1.043c-0.53125 1.1992-1.0273 2.4336-1.4727 3.668z"/>
  <path d="m36.023 16.852c1.082-0.64062 2.1914-1.25 3.3086-1.8125l-1.1562-2.3008c-1.168 0.58984-2.332 1.2266-3.4648 1.8984z"/>
  <path d="m28.211 19.125 1.6055 2.0117c0.98438-0.78516 2-1.543 3.0273-2.25l-1.4609-2.1211c-1.0742 0.74609-2.1406 1.5391-3.1719 2.3594z"/>
  <path d="m19.441 32.043c0.73047-1.0156 1.5078-2.0234 2.3086-2.9844l-1.9844-1.6445c-0.83594 1.0078-1.6484 2.0625-2.4141 3.125z"/>
  <path d="m116.67 41.363c-0.35938-0.83203-0.73438-1.6523-1.1289-2.4648l-2.3164 1.1289c0.37891 0.77344 0.73828 1.5586 1.0781 2.3555z"/>
  <path d="m90.129 15.855 1.2305-2.2617c-1.1445-0.625-2.3359-1.2188-3.5312-1.7695l-1.0742 2.3398c1.1445 0.52734 2.2773 1.0938 3.375 1.6914z"/>
  <path d="m109.46 33.492c0.69531 1.0352 1.3672 2.1133 1.9961 3.2031l2.2305-1.2852c-0.65625-1.1406-1.3594-2.2656-2.0898-3.3516z"/>
  <path d="m93.379 17.777c1.0547 0.67188 2.1016 1.3906 3.1094 2.1367l1.5312-2.0703c-1.0547-0.78125-2.1523-1.5312-3.2539-2.2383z"/>
  <path d="m107.25 30.43 2.0352-1.5781c-0.80078-1.0352-1.6523-2.0547-2.5273-3.0352l-1.9219 1.7148c0.83594 0.9375 1.6484 1.9141 2.4141 2.8984z"/>
  <path d="m102.23 24.805 1.8008-1.8438c-0.9375-0.91797-1.9219-1.8125-2.918-2.6602l-1.6719 1.9609c0.95703 0.8125 1.8945 1.668 2.7891 2.543z"/>
  <path d="m57.293 9.6094c1.2383-0.14844 2.5-0.25781 3.7578-0.32422l-0.13281-2.5703c-1.3164 0.070312-2.6406 0.18359-3.9336 0.33984z"/>
  <path d="m83.273 12.715 0.91016-2.4102c-1.2266-0.46094-2.4844-0.88672-3.7422-1.2656l-0.74219 2.4688c1.2031 0.35938 2.4062 0.76563 3.5742 1.207z"/>
  <path d="m76.051 10.551 0.56641-2.5117c-1.2852-0.28906-2.5898-0.53516-3.8828-0.73437l-0.39062 2.5469c1.2305 0.1875 2.4805 0.42188 3.707 0.69922z"/>
 </g>
</svg>
